<?xml version="1.0" encoding="UTF-8"?>
<svg id="Calque_1" data-name="Calque 1" xmlns="http://www.w3.org/2000/svg" viewBox="0 0 2877.85 1060.3">
  <defs>
    <style>
      .cls-1 {
        fill: #e1e1e1;
      }

      .cls-2 {
        fill: #5765ab;
      }

      .cls-3 {
        fill: #1d1d1b;
      }

      .cls-4 {
        fill: #d3d2d2;
      }

      .cls-5 {
        fill: #282f67;
      }

      .cls-6 {
        fill: #eaf0f0;
      }
    </style>
  </defs>
  <path class="cls-3" d="M18.98,941.16c-5.5,0-10.03-1.58-13.61-4.74-3.58-3.16-5.37-7.74-5.37-13.74,0-1.66.16-3.45.5-5.37.33-1.91.91-3.95,1.75-6.12l89.42-260.26c2.33-7.66,6.2-13.82,11.61-18.48,5.41-4.66,11.61-6.99,18.61-6.99h12.24c7.16,0,13.45,2.33,18.86,6.99,5.41,4.66,9.28,10.83,11.61,18.48l89.42,260.26c.83,2.17,1.37,4.21,1.62,6.12.25,1.91.37,3.71.37,5.37,0,6.16-1.79,10.78-5.37,13.86-3.58,3.08-8.2,4.62-13.86,4.62-6.99,0-12.2-1.91-15.61-5.74-3.41-3.83-6.21-9.74-8.37-17.73l-23.23-66.94h-123.14l-23.23,66.94c-2.17,7.99-4.96,13.9-8.37,17.73-3.41,3.83-8.7,5.74-15.86,5.74ZM75.18,818.52h105.65l-49.7-149.11c-.5-2.33-1-4.5-1.5-6.49-.5-2-1-3.83-1.5-5.5-.34,1.67-.79,3.5-1.37,5.5-.58,2-1.12,4.16-1.62,6.49l-49.95,149.11Z"/>
  <path class="cls-3" d="M350.43,936.41c-8.49,0-14.74-1.41-18.73-4.25-4-2.83-5.99-6.74-5.99-11.74,0-5.33,2-9.4,5.99-12.24,4-2.83,10.24-4.25,18.73-4.25h66.19v-315.71h-51.45c-8.83,0-15.53-1.41-20.11-4.25-4.58-2.83-6.87-6.83-6.87-11.99s2.29-9.16,6.87-11.99c4.58-2.83,11.28-4.24,20.11-4.24h64.44c8.82,0,15.52,2.29,20.11,6.87,4.58,4.58,6.87,11.28,6.87,20.11v321.21h67.94c8.33,0,14.53,1.42,18.61,4.25,4.08,2.83,6.12,6.91,6.12,12.24,0,5-2.04,8.91-6.12,11.74-4.08,2.83-10.28,4.25-18.61,4.25h-174.09Z"/>
  <path class="cls-3" d="M744.81,1060.3c-13.16,0-25.85-1.58-38.09-4.74-12.24-3.17-23.19-7.74-32.85-13.74-9.66-5.99-17.28-13.36-22.85-22.1-5.58-8.74-8.37-18.78-8.37-30.1,0-6.49,1.83-11.33,5.5-14.49,3.66-3.17,8.49-4.75,14.49-4.75s10.53,1.71,13.61,5.12c3.08,3.41,5.62,7.28,7.62,11.61,3.33,13.82,10.65,23.98,21.98,30.47,11.32,6.49,24.73,9.74,40.21,9.74,11.65,0,22.39-2.37,32.22-7.12,9.82-4.75,17.73-12.61,23.73-23.6,5.99-10.99,8.99-25.64,8.99-43.96v-47.71c-8.33,11.16-19.28,20.07-32.85,26.73-13.57,6.66-28.35,9.99-44.33,9.99-18.32,0-35.59-4.62-51.83-13.86-16.23-9.24-29.35-23.1-39.34-41.59-9.99-18.48-14.99-41.54-14.99-69.19s4.99-50.83,14.99-69.06c9.99-18.23,23.1-31.88,39.34-40.96,16.24-9.07,33.51-13.61,51.83-13.61,16.49,0,31.63,3.54,45.46,10.62,13.82,7.08,24.89,16.61,33.22,28.6v-19.98c2.5-11.49,9.07-17.23,19.73-17.23,13.99,0,20.98,8.74,20.98,26.23v222.55c0,20.98-2.91,38.88-8.74,53.7-5.83,14.82-13.78,26.81-23.85,35.97-10.08,9.16-21.65,15.86-34.72,20.11-13.07,4.24-26.77,6.37-41.09,6.37ZM743.31,908.19c10.65,0,20.94-2.41,30.85-7.24,9.9-4.83,18.23-11.57,24.98-20.23,6.74-8.66,10.7-18.48,11.86-29.47v-64.69c-.84-11.49-4.66-21.69-11.49-30.6-6.83-8.91-15.2-15.99-25.1-21.23-9.91-5.25-20.27-7.87-31.1-7.87-12.99,0-24.98,3.21-35.97,9.62-10.99,6.41-19.86,16.24-26.6,29.47-6.74,13.24-10.12,30.27-10.12,51.08s3.37,37.26,10.12,50.83c6.74,13.57,15.61,23.69,26.6,30.35,10.99,6.66,22.98,9.99,35.97,9.99Z"/>
  <path class="cls-3" d="M1056.27,941.66c-14.49,0-28.97-2.37-43.46-7.12-14.49-4.75-27.73-12.15-39.72-22.23-11.99-10.07-21.57-23.02-28.72-38.84-7.16-15.82-10.74-34.63-10.74-56.45s3.58-40.59,10.74-56.32c7.16-15.73,16.74-28.6,28.72-38.59,11.99-9.99,25.23-17.36,39.72-22.1,14.49-4.74,28.97-7.12,43.46-7.12s28.93,2.37,43.33,7.12c14.4,4.75,27.6,12.11,39.59,22.1,11.99,9.99,21.56,22.86,28.72,38.59,7.16,15.74,10.74,34.51,10.74,56.32s-3.58,40.63-10.74,56.45c-7.16,15.82-16.74,28.77-28.72,38.84-11.99,10.08-25.19,17.48-39.59,22.23-14.4,4.74-28.85,7.12-43.33,7.12ZM1056.27,908.94c9.32,0,18.65-1.66,27.97-5,9.32-3.33,17.86-8.62,25.6-15.86,7.74-7.24,13.99-16.73,18.73-28.47,4.75-11.74,7.12-25.93,7.12-42.59s-2.37-30.51-7.12-42.09c-4.74-11.57-10.99-21.02-18.73-28.35-7.74-7.33-16.28-12.7-25.6-16.11-9.33-3.41-18.65-5.12-27.97-5.12s-18.7,1.71-28.1,5.12c-9.41,3.41-18.03,8.79-25.85,16.11-7.83,7.33-14.07,16.78-18.73,28.35-4.66,11.57-6.99,25.6-6.99,42.09s2.33,30.85,6.99,42.59c4.66,11.74,10.9,21.23,18.73,28.47,7.83,7.24,16.44,12.53,25.85,15.86,9.4,3.33,18.77,5,28.1,5Z"/>
  <path class="cls-3" d="M1853.3,822.02h-60.44v87.42c0,17.98-6.99,26.97-20.98,26.97s-20.98-8.99-20.98-26.97v-255.27c0-17.98,8.99-26.97,26.97-26.97h75.43c7.66,0,16.27.54,25.85,1.62,9.57,1.08,19.27,3.33,29.1,6.74,9.82,3.41,18.9,8.62,27.23,15.61,8.32,6.99,15.03,16.28,20.11,27.85,5.08,11.58,7.62,26.27,7.62,44.09s-2.54,32.43-7.62,44.33c-5.08,11.91-11.78,21.48-20.11,28.72-8.33,7.24-17.4,12.74-27.23,16.49-9.83,3.74-19.52,6.24-29.1,7.49-9.58,1.25-18.19,1.87-25.85,1.87ZM1792.86,659.66v130.13h54.7c6.99,0,14.65-.71,22.98-2.12,8.33-1.41,16.32-4.28,23.98-8.62,7.66-4.33,13.9-10.95,18.73-19.86,4.83-8.91,7.24-20.94,7.24-36.09s-2.41-27.02-7.24-35.59c-4.83-8.57-11.08-14.86-18.73-18.86-7.66-4-15.65-6.5-23.98-7.49-8.33-1-15.99-1.5-22.98-1.5h-54.7Z"/>
  <path class="cls-3" d="M2235.2,937.16c-8.16,0-13.99-1.7-17.48-5.12-3.5-3.41-5.58-8.2-6.24-14.36l-1-13.24c-2.83,4.66-7.99,9.87-15.49,15.61-7.49,5.74-16.86,10.66-28.1,14.74-11.24,4.08-24.19,6.12-38.84,6.12-18.32,0-34.68-2.87-49.08-8.62-14.4-5.74-25.77-14.28-34.09-25.6-8.33-11.32-12.49-25.39-12.49-42.21s4.54-29.8,13.61-40.96c9.07-11.15,21.52-19.69,37.34-25.6,15.82-5.91,33.88-8.87,54.2-8.87,10.49,0,20.69,1.08,30.6,3.25,9.9,2.17,18.56,4.71,25.98,7.62,7.41,2.91,12.7,5.54,15.86,7.87v-35.72c0-8.99-2.08-16.49-6.24-22.48-4.16-5.99-9.66-10.78-16.49-14.36-6.83-3.58-14.36-6.12-22.6-7.62s-16.45-2.25-24.6-2.25c-10.83,0-21.73,1.29-32.72,3.87-10.99,2.58-20.23,5.54-27.73,8.87-2.5,1-4.96,1.71-7.37,2.12-2.41.42-4.46.63-6.12.63-5.33,0-9.7-1.29-13.11-3.87-3.41-2.58-5.12-6.2-5.12-10.86,0-4.33,1.66-7.87,4.99-10.62,3.33-2.75,7.41-5.2,12.24-7.37,8.66-4,20.02-7.53,34.09-10.62,14.07-3.08,29.35-4.62,45.83-4.62,12.65,0,25.1,1.37,37.34,4.12,12.24,2.75,23.43,6.99,33.59,12.74,10.15,5.74,18.23,13.28,24.23,22.6,5.99,9.33,8.99,20.57,8.99,33.72v138.87h21.98c6.33,0,11.12,1.33,14.36,4,3.25,2.67,4.87,6.58,4.87,11.74,0,4.83-1.87,8.79-5.62,11.86-3.75,3.08-10.12,4.62-19.11,4.62h-30.47ZM2209.97,839.25c-3.33-3-8.87-6.16-16.61-9.49-7.74-3.33-16.32-6.12-25.73-8.37-9.41-2.25-18.44-3.37-27.1-3.37-20.48,0-37.05,3.66-49.7,10.99-12.66,7.33-18.98,18.9-18.98,34.72,0,11.33,2.66,20.44,7.99,27.35,5.33,6.91,12.65,11.87,21.98,14.86,9.32,3,19.98,4.5,31.97,4.5s23.23-2.41,33.72-7.24c10.49-4.83,19.48-10.49,26.97-16.99,7.49-6.49,12.65-12.24,15.49-17.23v-29.72Z"/>
  <path class="cls-3" d="M2369.32,730.85c-17.49,0-26.23-5.41-26.23-16.23s8.74-15.99,26.23-15.99h43.96v-64.69c0-17.82,7.07-26.73,21.23-26.73s20.98,8.91,20.98,26.73v64.69h78.93c17.65,0,26.48,5.33,26.48,15.99s-8.83,16.23-26.48,16.23h-78.93v123.89c0,13.66,1.83,24.56,5.49,32.72,3.66,8.16,8.7,13.99,15.11,17.49,6.41,3.5,13.69,5.24,21.85,5.24,12.49,0,22.39-4.04,29.72-12.11,7.33-8.07,11.49-19.44,12.49-34.09,1-4.33,2.7-8.12,5.12-11.37,2.41-3.25,6.37-4.87,11.86-4.87,5.16,0,9.07,1.67,11.74,5,2.66,3.33,4,8.41,4,15.24,0,14.99-3.54,27.97-10.62,38.96-7.08,10.99-16.57,19.48-28.47,25.48-11.91,5.99-25.1,8.99-39.59,8.99s-28.14-2.33-40.46-6.99c-12.33-4.66-22.15-12.53-29.47-23.6-7.33-11.07-10.99-26.26-10.99-45.58v-134.38h-43.96Z"/>
  <path class="cls-3" d="M2856.87,938.91c-14.16,0-21.23-9.07-21.23-27.23v-107.15c0-28.14-4.66-48.24-13.99-60.32-9.33-12.07-23.48-18.11-42.46-18.11-7.99,0-15.86,1.87-23.6,5.62-7.74,3.75-14.74,8.87-20.98,15.36-6.24,6.5-11.24,13.78-14.99,21.86-3.75,8.08-5.62,16.45-5.62,25.1v117.64c0,18.15-6.99,27.23-20.98,27.23-6.83,0-12.03-2.33-15.61-6.99-3.58-4.66-5.37-11.4-5.37-20.23v-328.95c0-8.82,1.79-15.52,5.37-20.11,3.58-4.58,8.78-6.87,15.61-6.87,13.99,0,20.98,8.99,20.98,26.97v151.86c8.33-11.99,19.23-21.89,32.72-29.72,13.49-7.82,28.31-11.74,44.46-11.74,17.49,0,32.72,3.37,45.71,10.12,12.99,6.74,23.06,17.82,30.22,33.22,7.16,15.4,10.74,36.01,10.74,61.82v113.4c0,18.15-6.99,27.23-20.98,27.23Z"/>
  <path class="cls-5" d="M1453.82,41.07L1487.78.73c.82-.97,2.92-.97,3.74,0l34.12,40.4c.96,1.14-.72,2.46-2.58,2.02l-26.33-6.18c-1.39-.33-2.86.36-2.86,1.34l.16,50.68c0,.78-.96,1.42-2.14,1.42h-4.52c-1.18,0-2.14-.64-2.14-1.42l.16-50.89c0-.98-1.48-1.67-2.88-1.33l-26.09,6.32c-1.86.45-3.57-.87-2.61-2.02Z"/>
  <path class="cls-4" d="M1580.59,609.76c18.88-5.49,42.21,22.42,83.11,71.35,31.59,37.79,49.43,59.77,51.23,92.91,1.59,29.38-9.29,70.03-35.6,79.89-8.41,3.15-15.82,2.19-26.05.87,0,0-34.74-4.49-63.39-28.65-56.59-47.75-49.18-204.76-9.3-216.36Z"/>
  <path class="cls-1" d="M1265.43,236.81c-60.59,87.37-51,228.47,28.94,311.44,74.23,77.04,180.02,73.75,206.08,72.94,29.67-.92,98.87-3.07,158.61-53.26,78.22-65.7,82.18-164.97,83.36-194.51,1.24-31.04,3.26-81.58-22-123.88-71.19-119.24-352.09-161.13-455-12.74Z"/>
  <path class="cls-1" d="M1284.24,767.94c1.69,49.97,30.55,70.37,25.18,135.46-1.02,12.36-3.72,31.58,6.08,52.1,12.54,26.25,37.7,38.19,46.89,42.55,10.63,5.04,42.93,20.37,79.02,6.95,4.57-1.7,42.76-15.91,49.49-46.02,4.86-21.75-9.76-38.05.87-50.36,5.42-6.28,15.6-9.41,20.84-6.08,5.66,3.6,2.1,12.54,5.21,22.58,7.18,23.17,43.29,30.81,49.49,32.13,7.72,1.64,39.34,8.33,63.39-10.42,9.05-7.05,21.69-21.35,26.05-58.18,6.74-56.95-14.95-94.83-45.15-172.8-38.89-100.37-28.57-115.08-52.97-132.85-48.77-35.53-125.54-11.91-166.72,11.29-62.06,34.97-109.95,106.54-107.67,173.67Z"/>
  <path class="cls-4" d="M1381.49,601.22c9,5.81,5.24,23.31.87,57.31-12.7,98.82-.59,103.66-16.5,151.96-12.09,36.71-22.46,68.17-52.1,79.89-23.91,9.45-52.85,3.07-72.07-12.16-31.69-25.11-30.11-68.85-29.52-85.1,2.52-69.76,56.58-116.51,101.59-155.43,18.26-15.79,53.11-45.92,67.73-36.47Z"/>
  <path class="cls-5" d="M1309.52,503.96c-32.03-27.99-40.98-64.71-43.38-75.19-19.35-84.3,44.74-154.49,48.63-158.61,90-95.55,295.58-79.24,365.85,24.31,2.13,3.14,51.09,77.68,20.84,151.09-16.21,39.34-47.64,60.09-59.44,67.66-10.78,6.91-42.58,25.29-169.88,22.39-86.93-1.99-131.03-4.04-162.62-31.65Z"/>
  <path class="cls-6" d="M1372.53,325.86c-12.54.18-24.79,31.39-23.65,57.99.95,22.19,11.6,49.69,23.81,49.86,11.84.16,22.94-25.42,24.68-46.31,2.41-28.82-11.89-61.72-24.84-61.54Z"/>
  <path class="cls-6" d="M1587.74,325.86c-12.54.18-24.79,31.39-23.65,57.99.95,22.19,11.6,49.69,23.81,49.86,11.84.16,22.94-25.42,24.68-46.31,2.41-28.82-11.89-61.72-24.84-61.54Z"/>
  <polygon class="cls-1" points="1502.61 68.36 1489.73 68.36 1476.84 68.36 1476.84 147.24 1502.61 147.24 1502.61 68.36"/>
  <circle class="cls-5" cx="1497.62" cy="754.26" r="73.1"/>
  <circle class="cls-2" cx="1497.62" cy="754.26" r="51.46"/>
  <path class="cls-5" d="M1146.79,373.15c-3.33-1.33-10.25-1.02-23.95-.34-18.47.91-38.22,1.89-50.45,5.15-42.44,11.3-35.37,60.99-76.53,72.41-13.17,3.65-39.34,5.63-64.86-3.43-11.59-4.11-19.49-9.24-22.65-6.18-4.76,4.62,8.76,20.54,23.34,54.91,13.46,31.73,20.19,47.6,19.22,64.86-.33,5.91-1.6,16.48,2.75,29.17,1.94,5.66,5.71,16.23,14.76,19.9,7.39,3,14.84.66,17.86-.29,35.73-11.24,55.21,1.71,95.73-14.81,29.24-11.92,23.69-19.62,45.99-26.43,37.98-11.59,60.52,12.7,72.41,1.37,12.23-11.64-11.03-37.82-25.05-102.61-10.87-50.21-7.93-85.45-28.56-93.69Z"/>
  <path class="cls-2" d="M1157.16,366.29l129.04,439.96c-.24.75-1.2,3.4-3.95,4.98-4.29,2.47-8.87-.04-9.09-.17-43.7-147.34-87.4-294.68-131.1-442.02,1.19-.98,4.34-3.29,8.92-3.6,2.67-.18,4.84.38,6.18.86Z"/>
  <path class="cls-5" d="M1158.75,356.47c-2.11-4.11-7.83-5.15-11.54-4.76-7.53.78-15.05,8.25-13.47,14.24,1.44,5.46,10.27,9,16.99,6.32,6.33-2.53,10.72-10.54,8.02-15.8Z"/>
</svg>