<?xml version="1.0" encoding="UTF-8"?>
<svg id="Calque_1" data-name="Calque 1" xmlns="http://www.w3.org/2000/svg" viewBox="0 0 2523.13 2448.15">
  <defs>
    <style>
      .cls-1 {
        fill: #e1e1e1;
      }

      .cls-2 {
        fill: #5765ab;
      }

      .cls-3 {
        fill: #1d1d1b;
      }

      .cls-4 {
        fill: #d3d2d2;
      }

      .cls-5 {
        fill: #282f67;
      }

      .cls-6 {
        fill: #eaf0f0;
      }
    </style>
  </defs>
  <path class="cls-3" d="M18.92,2329.37c-5.48,0-10-1.58-13.57-4.73-3.57-3.15-5.35-7.72-5.35-13.7,0-1.66.16-3.44.5-5.35.33-1.91.91-3.94,1.74-6.1l89.14-259.46c2.32-7.63,6.18-13.78,11.58-18.43,5.39-4.65,11.58-6.97,18.55-6.97h12.2c7.14,0,13.4,2.33,18.8,6.97,5.39,4.65,9.25,10.79,11.58,18.43l89.14,259.46c.83,2.16,1.37,4.2,1.62,6.1.25,1.91.37,3.69.37,5.35,0,6.14-1.79,10.75-5.35,13.82-3.57,3.07-8.18,4.61-13.82,4.61-6.97,0-12.16-1.91-15.56-5.73-3.4-3.82-6.19-9.71-8.34-17.68l-23.16-66.73h-122.76l-23.16,66.73c-2.16,7.97-4.94,13.86-8.34,17.68-3.4,3.82-8.68,5.73-15.81,5.73ZM74.95,2207.11h105.33l-49.55-148.65c-.5-2.32-1-4.48-1.5-6.47-.5-1.99-.99-3.82-1.49-5.48-.33,1.66-.79,3.49-1.37,5.48-.58,1.99-1.12,4.15-1.62,6.47l-49.8,148.65Z"/>
  <path class="cls-3" d="M349.34,2324.64c-8.47,0-14.69-1.41-18.68-4.23-3.98-2.82-5.98-6.72-5.98-11.7,0-5.31,1.99-9.38,5.98-12.2,3.99-2.82,10.21-4.23,18.68-4.23h65.98v-314.74h-51.29c-8.8,0-15.48-1.41-20.04-4.23-4.57-2.82-6.85-6.8-6.85-11.95s2.28-9.13,6.85-11.95c4.56-2.82,11.24-4.23,20.04-4.23h64.24c8.8,0,15.48,2.28,20.04,6.85,4.56,4.57,6.85,11.25,6.85,20.04v320.22h67.73c8.3,0,14.48,1.41,18.55,4.23,4.07,2.82,6.1,6.89,6.1,12.2,0,4.98-2.03,8.88-6.1,11.7-4.07,2.82-10.25,4.23-18.55,4.23h-173.55Z"/>
  <path class="cls-3" d="M742.51,2448.15c-13.11,0-25.77-1.58-37.97-4.73-12.2-3.16-23.12-7.72-32.74-13.7-9.63-5.98-17.22-13.32-22.78-22.04-5.56-8.72-8.34-18.72-8.34-30.01,0-6.47,1.82-11.29,5.48-14.44,3.65-3.16,8.47-4.73,14.44-4.73s10.5,1.7,13.57,5.11c3.07,3.4,5.6,7.26,7.6,11.58,3.32,13.78,10.62,23.9,21.91,30.38,11.29,6.47,24.65,9.71,40.09,9.71,11.62,0,22.33-2.37,32.12-7.1,9.79-4.73,17.68-12.57,23.65-23.53,5.98-10.96,8.96-25.57,8.96-43.82v-47.56c-8.3,11.12-19.22,20.01-32.74,26.64-13.53,6.64-28.26,9.96-44.2,9.96-18.26,0-35.48-4.61-51.67-13.82-16.18-9.21-29.26-23.03-39.22-41.46-9.96-18.43-14.94-41.42-14.94-68.97s4.98-50.67,14.94-68.85c9.96-18.18,23.03-31.79,39.22-40.84,16.19-9.04,33.41-13.57,51.67-13.57,16.43,0,31.54,3.53,45.32,10.58,13.78,7.06,24.82,16.56,33.12,28.51v-19.92c2.49-11.45,9.05-17.18,19.67-17.18,13.94,0,20.92,8.72,20.92,26.15v221.86c0,20.92-2.91,38.76-8.72,53.54-5.81,14.77-13.74,26.73-23.78,35.86-10.05,9.13-21.58,15.81-34.61,20.04-13.03,4.23-26.69,6.35-40.96,6.35ZM741.02,2296.51c10.62,0,20.87-2.41,30.75-7.22,9.87-4.81,18.18-11.53,24.9-20.17,6.72-8.63,10.66-18.43,11.83-29.38v-64.49c-.83-11.45-4.65-21.62-11.45-30.5-6.81-8.88-15.15-15.94-25.02-21.16-9.88-5.23-20.21-7.84-31-7.84-12.95,0-24.9,3.2-35.86,9.59-10.96,6.39-19.79,16.19-26.52,29.38-6.72,13.2-10.08,30.17-10.08,50.92s3.36,37.14,10.08,50.67c6.72,13.53,15.56,23.62,26.52,30.25,10.96,6.64,22.91,9.96,35.86,9.96Z"/>
  <path class="cls-3" d="M1053.01,2329.87c-14.44,0-28.89-2.37-43.33-7.1-14.44-4.73-27.64-12.12-39.59-22.16-11.95-10.04-21.5-22.95-28.64-38.72-7.14-15.77-10.71-34.52-10.71-56.27s3.57-40.46,10.71-56.15c7.14-15.69,16.68-28.51,28.64-38.47,11.95-9.96,25.15-17.3,39.59-22.04,14.44-4.73,28.88-7.1,43.33-7.1s28.84,2.37,43.2,7.1c14.36,4.73,27.52,12.08,39.47,22.04,11.95,9.96,21.5,22.78,28.64,38.47,7.13,15.69,10.71,34.4,10.71,56.15s-3.57,40.5-10.71,56.27c-7.14,15.77-16.68,28.68-28.64,38.72-11.95,10.05-25.11,17.43-39.47,22.16-14.36,4.73-28.76,7.1-43.2,7.1ZM1053.01,2297.25c9.29,0,18.59-1.66,27.89-4.98,9.29-3.32,17.8-8.59,25.52-15.81,7.72-7.22,13.94-16.68,18.67-28.39,4.73-11.7,7.1-25.85,7.1-42.45s-2.37-30.42-7.1-41.96c-4.73-11.54-10.96-20.96-18.67-28.26-7.72-7.3-16.23-12.66-25.52-16.06-9.3-3.4-18.59-5.11-27.89-5.11s-18.64,1.7-28.01,5.11c-9.38,3.4-17.97,8.76-25.77,16.06-7.81,7.31-14.03,16.73-18.67,28.26-4.65,11.54-6.97,25.52-6.97,41.96s2.32,30.75,6.97,42.45c4.65,11.7,10.87,21.16,18.67,28.39,7.8,7.22,16.39,12.49,25.77,15.81,9.38,3.32,18.71,4.98,28.01,4.98Z"/>
  <path class="cls-3" d="M1501.74,2210.6h-60.26v87.15c0,17.93-6.97,26.89-20.92,26.89s-20.92-8.96-20.92-26.89v-254.48c0-17.93,8.96-26.89,26.89-26.89h75.2c7.63,0,16.22.54,25.77,1.62,9.55,1.08,19.21,3.32,29.01,6.72,9.79,3.4,18.84,8.59,27.14,15.56,8.3,6.97,14.98,16.23,20.04,27.76,5.06,11.54,7.59,26.19,7.59,43.95s-2.53,32.33-7.59,44.2c-5.06,11.87-11.75,21.41-20.04,28.64-8.3,7.22-17.35,12.7-27.14,16.43-9.8,3.73-19.46,6.22-29.01,7.47-9.55,1.25-18.14,1.87-25.77,1.87ZM1441.49,2048.75v129.73h54.53c6.97,0,14.61-.7,22.91-2.12,8.3-1.41,16.27-4.27,23.9-8.59,7.63-4.31,13.86-10.91,18.67-19.79,4.81-8.88,7.22-20.87,7.22-35.98s-2.41-26.93-7.22-35.48c-4.82-8.55-11.04-14.82-18.67-18.8-7.64-3.99-15.6-6.48-23.9-7.47-8.3-1-15.94-1.5-22.91-1.5h-54.53Z"/>
  <path class="cls-3" d="M1882.46,2325.39c-8.13,0-13.94-1.7-17.43-5.1-3.49-3.4-5.56-8.17-6.23-14.32l-1-13.2c-2.82,4.65-7.97,9.84-15.44,15.56-7.47,5.73-16.81,10.62-28.01,14.69-11.21,4.07-24.11,6.1-38.72,6.1-18.26,0-34.57-2.86-48.93-8.59-14.36-5.73-25.69-14.23-33.99-25.52-8.3-11.29-12.45-25.31-12.45-42.08s4.52-29.71,13.57-40.84c9.05-11.12,21.45-19.63,37.23-25.52,15.77-5.89,33.78-8.84,54.03-8.84,10.46,0,20.62,1.08,30.5,3.24,9.87,2.16,18.51,4.69,25.89,7.6,7.38,2.91,12.66,5.52,15.81,7.84v-35.61c0-8.97-2.08-16.43-6.23-22.41-4.15-5.98-9.63-10.75-16.43-14.32-6.81-3.57-14.32-6.1-22.53-7.59-8.22-1.49-16.4-2.24-24.53-2.24-10.79,0-21.66,1.29-32.62,3.86-10.96,2.57-20.17,5.52-27.64,8.84-2.49,1-4.94,1.7-7.35,2.12-2.41.42-4.44.62-6.1.62-5.32,0-9.67-1.29-13.07-3.86-3.4-2.57-5.1-6.18-5.1-10.83,0-4.32,1.66-7.84,4.98-10.58,3.32-2.74,7.39-5.19,12.2-7.35,8.63-3.98,19.96-7.51,33.99-10.58,14.03-3.07,29.26-4.61,45.69-4.61,12.61,0,25.02,1.37,37.23,4.11,12.2,2.74,23.36,6.97,33.49,12.7,10.12,5.73,18.18,13.24,24.15,22.53,5.98,9.3,8.96,20.5,8.96,33.62v138.45h21.91c6.31,0,11.08,1.33,14.32,3.98,3.24,2.66,4.86,6.56,4.86,11.7,0,4.82-1.87,8.76-5.6,11.83-3.74,3.08-10.08,4.61-19.05,4.61h-30.38ZM1857.31,2227.78c-3.32-2.99-8.84-6.14-16.56-9.46-7.72-3.32-16.27-6.1-25.65-8.34-9.38-2.24-18.39-3.36-27.02-3.36-20.42,0-36.94,3.65-49.55,10.96-12.62,7.31-18.92,18.84-18.92,34.61,0,11.29,2.65,20.38,7.97,27.27,5.31,6.89,12.61,11.83,21.91,14.82,9.29,2.99,19.92,4.48,31.87,4.48s23.16-2.4,33.62-7.22c10.46-4.81,19.42-10.46,26.89-16.93,7.47-6.47,12.61-12.2,15.44-17.18v-29.63Z"/>
  <path class="cls-3" d="M2016.17,2119.72c-17.43,0-26.15-5.39-26.15-16.18s8.71-15.94,26.15-15.94h43.82v-64.49c0-17.76,7.05-26.64,21.16-26.64s20.92,8.88,20.92,26.64v64.49h78.68c17.59,0,26.4,5.32,26.4,15.94s-8.8,16.18-26.4,16.18h-78.68v123.5c0,13.61,1.82,24.49,5.48,32.62,3.65,8.14,8.67,13.94,15.07,17.43,6.39,3.49,13.65,5.23,21.79,5.23,12.45,0,22.33-4.02,29.63-12.08,7.3-8.05,11.45-19.38,12.45-33.99,1-4.32,2.7-8.09,5.11-11.33,2.4-3.24,6.35-4.86,11.83-4.86,5.14,0,9.05,1.66,11.7,4.98,2.65,3.32,3.99,8.38,3.99,15.19,0,14.94-3.53,27.89-10.58,38.84-7.06,10.96-16.52,19.42-28.39,25.4-11.87,5.98-25.02,8.96-39.47,8.96s-28.05-2.33-40.34-6.97c-12.29-4.65-22.08-12.49-29.38-23.53-7.31-11.04-10.96-26.18-10.96-45.44v-133.96h-43.82Z"/>
  <path class="cls-3" d="M2502.21,2327.13c-14.11,0-21.16-9.05-21.16-27.14v-106.82c0-28.05-4.65-48.09-13.94-60.13-9.3-12.03-23.41-18.05-42.33-18.05-7.97,0-15.81,1.87-23.53,5.6-7.72,3.74-14.69,8.84-20.92,15.31-6.23,6.48-11.2,13.74-14.94,21.79-3.74,8.05-5.6,16.4-5.6,25.02v117.28c0,18.1-6.97,27.14-20.92,27.14-6.81,0-11.99-2.33-15.56-6.97-3.57-4.65-5.35-11.37-5.35-20.17v-327.93c0-8.8,1.78-15.48,5.35-20.04,3.57-4.56,8.75-6.85,15.56-6.85,13.94,0,20.92,8.96,20.92,26.89v151.39c8.3-11.95,19.17-21.83,32.62-29.63,13.45-7.8,28.22-11.7,44.32-11.7,17.43,0,32.62,3.36,45.57,10.08,12.95,6.72,22.99,17.77,30.13,33.12,7.14,15.36,10.71,35.9,10.71,61.63v113.05c0,18.1-6.97,27.14-20.92,27.14Z"/>
  <path class="cls-5" d="M1238.25,80.26L1304.63,1.42c1.59-1.89,5.71-1.89,7.31,0l66.67,78.94c1.88,2.23-1.42,4.8-5.05,3.95l-51.46-12.07c-2.73-.64-5.59.7-5.58,2.61l.32,99.05c0,1.53-1.87,2.77-4.18,2.77h-8.83c-2.31,0-4.19-1.24-4.18-2.77l.32-99.45c0-1.92-2.89-3.26-5.62-2.6l-50.98,12.36c-3.64.88-6.98-1.7-5.1-3.94Z"/>
  <path class="cls-4" d="M1485.99,1191.58c36.89-10.73,82.48,43.81,162.41,139.43,61.73,73.84,96.6,116.8,100.12,181.57,3.11,57.41-18.15,136.86-69.57,156.11-16.43,6.15-30.92,4.28-50.91,1.7,0,0-67.9-8.77-123.87-56-110.6-93.3-96.11-400.14-18.18-422.81Z"/>
  <path class="cls-1" d="M870.1,462.78c-118.41,170.74-99.66,446.48,56.56,608.61,145.06,150.54,351.79,144.12,402.72,142.54,57.98-1.8,193.21-6,309.96-104.07,152.85-128.39,160.6-322.38,162.9-380.1,2.42-60.66,6.36-159.43-42.99-242.09-139.13-233.01-688.05-314.88-889.16-24.89Z"/>
  <path class="cls-1" d="M906.87,1500.7c3.31,97.65,59.7,137.52,49.21,264.71-1.99,24.15-7.27,61.72,11.88,101.81,24.5,51.29,73.68,74.63,91.63,83.15,20.77,9.86,83.89,39.81,154.42,13.58,8.92-3.32,83.56-31.08,96.72-89.93,9.51-42.51-19.07-74.36,1.7-98.42,10.6-12.27,30.48-18.4,40.73-11.88,11.07,7.04,4.11,24.51,10.18,44.12,14.02,45.27,84.6,60.22,96.72,62.78,15.1,3.2,76.87,16.28,123.87-20.36,17.68-13.79,42.38-41.71,50.91-113.69,13.18-111.29-29.21-185.31-88.24-337.68-75.99-196.14-55.82-224.88-103.51-259.62-95.3-69.43-245.32-23.28-325.8,22.06-121.28,68.33-214.86,208.2-210.41,339.37Z"/>
  <path class="cls-4" d="M1096.92,1174.9c17.58,11.36,10.24,45.56,1.7,111.99-24.82,193.1-1.15,202.58-32.24,296.95-23.63,71.73-43.89,133.22-101.81,156.11-46.73,18.47-103.28,6-140.84-23.76-61.93-49.07-58.84-134.55-57.69-166.29,4.92-136.32,110.57-227.67,198.53-303.74,35.69-30.86,103.78-89.74,132.36-71.27Z"/>
  <path class="cls-5" d="M956.27,984.83c-62.59-54.71-80.08-126.45-84.78-146.93-37.82-164.74,87.43-301.9,95.02-309.96,175.88-186.72,577.62-154.84,714.95,47.51,4.16,6.13,99.83,151.81,40.73,295.26-31.68,76.87-93.1,117.44-116.16,132.23-21.06,13.51-83.21,49.43-331.97,43.75-169.88-3.88-256.06-7.89-317.79-61.84Z"/>
  <path class="cls-6" d="M1079.39,636.79c-24.5.35-48.44,61.35-46.21,113.32,1.86,43.37,22.66,97.11,46.52,97.44,23.14.32,44.83-49.68,48.24-90.51,4.7-56.32-23.24-120.62-48.54-120.26Z"/>
  <path class="cls-6" d="M1499.95,636.79c-24.5.35-48.44,61.35-46.21,113.32,1.86,43.37,22.66,97.11,46.52,97.44,23.14.32,44.83-49.68,48.24-90.51,4.7-56.32-23.24-120.62-48.54-120.26Z"/>
  <polygon class="cls-1" points="1333.61 133.59 1308.43 133.59 1283.25 133.59 1283.25 287.73 1333.61 287.73 1333.61 133.59"/>
  <circle class="cls-5" cx="1323.85" cy="1473.97" r="142.85"/>
  <circle class="cls-2" cx="1323.85" cy="1473.97" r="100.55"/>
  <path class="cls-5" d="M638.26,729.21c-6.5-2.6-20.02-1.99-46.8-.66-36.09,1.79-74.69,3.7-98.58,10.06-82.94,22.08-69.13,119.19-149.55,141.51-25.74,7.14-76.87,11-126.75-6.71-22.66-8.04-38.09-18.06-44.26-12.07-9.3,9.02,17.12,40.14,45.6,107.3,26.3,62.02,39.45,93.02,37.56,126.75-.65,11.56-3.12,32.2,5.37,57,3.78,11.07,11.15,31.71,28.84,38.9,14.43,5.87,29,1.29,34.91-.57,69.83-21.97,107.89,3.35,187.08-28.94,57.14-23.29,46.3-38.34,89.87-51.64,74.21-22.65,118.26,24.81,141.51,2.68,23.9-22.74-21.56-73.91-48.96-200.52-21.23-98.12-15.49-166.99-55.81-183.1Z"/>
  <path class="cls-2" d="M658.52,715.8l252.16,859.77c-.47,1.46-2.35,6.64-7.71,9.72-8.39,4.83-17.32-.08-17.77-.34-85.4-287.93-170.79-575.86-256.19-863.79,2.32-1.91,8.47-6.44,17.44-7.04,5.21-.35,9.45.75,12.07,1.68Z"/>
  <path class="cls-5" d="M661.63,696.61c-4.12-8.03-15.3-10.06-22.56-9.31-14.72,1.53-29.42,16.12-26.32,27.83,2.82,10.67,20.06,17.6,33.21,12.35,12.38-4.94,20.95-20.59,15.67-30.88Z"/>
</svg>