<?xml version="1.0" encoding="UTF-8"?>
<svg id="Calque_1" data-name="Calque 1" xmlns="http://www.w3.org/2000/svg" viewBox="0 0 2311.11 2794.2">
  <defs>
    <style>
      .cls-1 {
        fill: #e1e1e1;
      }

      .cls-2 {
        fill: #5765ab;
      }

      .cls-3 {
        fill: #d3d2d2;
      }

      .cls-4 {
        fill: #282f67;
      }

      .cls-5 {
        fill: #eaf0f0;
      }
    </style>
  </defs>
  <path class="cls-4" d="M1511.18,113.59L1605.12,2.01c2.25-2.68,8.08-2.68,10.34,0l94.35,111.71c2.66,3.15-2,6.8-7.15,5.59l-72.83-17.08c-3.86-.9-7.91.99-7.9,3.69l.45,140.17c0,2.16-2.64,3.92-5.92,3.92h-12.5c-3.27,0-5.93-1.76-5.92-3.92l.45-140.74c0-2.72-4.09-4.62-7.96-3.68l-72.14,17.49c-5.15,1.25-9.88-2.4-7.21-5.57Z"/>
  <path class="cls-3" d="M1861.78,1686.29c52.2-15.18,116.72,62,229.84,197.32,87.35,104.5,136.71,165.29,141.68,256.95,4.41,81.24-25.68,193.68-98.46,220.93-23.25,8.71-43.76,6.06-72.04,2.4,0,0-96.09-12.42-175.3-79.25-156.51-132.04-136.01-566.27-25.73-598.35Z"/>
  <path class="cls-1" d="M990.19,654.91c-167.57,241.63-141.04,631.85,80.05,861.29,205.29,213.05,497.84,203.95,569.93,201.71,82.06-2.55,273.43-8.5,438.65-147.28,216.31-181.7,227.27-456.23,230.53-537.91,3.43-85.84,9.01-225.62-60.83-342.6-196.89-329.75-973.71-445.61-1258.32-35.22Z"/>
  <path class="cls-1" d="M1042.22,2123.75c4.69,138.19,84.48,194.61,69.64,374.61-2.82,34.18-10.3,87.35,16.81,144.08,34.68,72.58,104.26,105.61,129.67,117.67,29.39,13.95,118.72,56.34,218.52,19.21,12.63-4.7,118.25-43.99,136.88-127.27,13.45-60.16-26.99-105.24,2.4-139.28,14.99-17.36,43.13-26.03,57.63-16.81,15.66,9.96,5.81,34.69,14.41,62.44,19.85,64.07,119.73,85.22,136.88,88.85,21.36,4.52,108.79,23.04,175.3-28.82,25.03-19.51,59.98-59.03,72.04-160.89,18.65-157.5-41.34-262.25-124.87-477.87-107.54-277.58-79-318.25-146.48-367.41-134.87-98.25-347.17-32.95-461.06,31.22-171.64,96.7-304.07,294.64-297.77,480.27Z"/>
  <path class="cls-3" d="M1311.17,1662.69c24.88,16.08,14.49,64.47,2.4,158.49-35.13,273.28-1.63,286.69-45.63,420.24-33.44,101.51-62.11,188.53-144.08,220.93-66.14,26.14-146.16,8.5-199.31-33.62-87.64-69.44-83.27-190.41-81.65-235.33,6.96-192.92,156.47-322.2,280.96-429.85,50.51-43.67,146.87-127,187.31-100.86Z"/>
  <path class="cls-4" d="M1112.14,1393.7c-88.57-77.42-113.32-178.94-119.98-207.94-53.52-233.14,123.73-427.24,134.48-438.65,248.9-264.25,817.44-219.13,1011.78,67.24,5.89,8.68,141.28,214.84,57.63,417.84-44.83,108.79-131.76,166.19-164.38,187.12-29.8,19.12-117.76,69.95-469.8,61.91-240.41-5.49-362.36-11.16-449.72-87.52Z"/>
  <path class="cls-5" d="M1286.37,901.17c-34.67.5-68.55,86.82-65.4,160.37,2.63,61.38,32.07,137.43,65.83,137.9,32.75.45,63.44-70.31,68.26-128.08,6.66-79.7-32.89-170.7-68.7-170.18Z"/>
  <path class="cls-5" d="M1881.54,901.17c-34.67.5-68.55,86.82-65.4,160.37,2.63,61.38,32.07,137.43,65.83,137.9,32.75.45,63.44-70.31,68.26-128.08,6.66-79.7-32.89-170.7-68.7-170.18Z"/>
  <polygon class="cls-1" points="1646.13 189.05 1610.5 189.05 1574.87 189.05 1574.87 407.19 1646.13 407.19 1646.13 189.05"/>
  <circle class="cls-4" cx="1632.32" cy="2085.92" r="202.16"/>
  <circle class="cls-2" cx="1632.32" cy="2085.92" r="142.3"/>
  <path class="cls-4" d="M662.09,1031.96c-9.2-3.68-28.33-2.81-66.23-.94-51.07,2.53-105.7,5.23-139.52,14.24-117.38,31.25-97.83,168.67-211.65,200.26-36.42,10.11-108.79,15.56-179.38-9.49-32.06-11.38-53.91-25.56-62.64-17.08-13.16,12.77,24.23,56.81,64.54,151.85,37.22,87.76,55.83,131.64,53.15,179.38-.92,16.36-4.41,45.56,7.59,80.67,5.36,15.66,15.78,44.87,40.81,55.05,20.43,8.3,41.04,1.82,49.4-.81,98.82-31.08,152.68,4.74,264.75-40.95,80.86-32.97,65.52-54.26,127.18-73.08,105.03-32.06,167.36,35.11,200.26,3.8,33.82-32.18-30.51-104.6-69.28-283.78-30.05-138.85-21.92-236.31-78.98-259.11Z"/>
  <path class="cls-2" d="M690.77,1012.99l356.86,1216.73c-.67,2.06-3.33,9.4-10.91,13.76-11.88,6.83-24.52-.11-25.15-.48-120.85-407.47-241.7-814.95-362.55-1222.42,3.29-2.71,11.99-9.11,24.68-9.97,7.38-.5,13.37,1.06,17.08,2.37Z"/>
  <path class="cls-4" d="M695.17,985.82c-5.84-11.37-21.65-14.24-31.92-13.17-20.83,2.16-41.63,22.82-37.25,39.39,3.99,15.1,28.39,24.9,47,17.48,17.52-6.98,29.65-29.14,22.18-43.7Z"/>
</svg>